<svg width="379" height="379" viewBox="0 0 379 379" fill="none" xmlns="http://www.w3.org/2000/svg">
    <path
        d="M189.87 378.55C294.324 378.55 379 293.874 379 189.42C379 84.9664 294.324 0.290039 189.87 0.290039C85.4165 0.290039 0.740181 84.9664 0.740181 189.42C0.740181 293.874 85.4165 378.55 189.87 378.55Z"
        fill="#0179FE" />
    <path
        d="M98.1827 204.001C98.1827 204.001 78.8634 192.224 62.9447 180.482C59.1649 177.694 54.0238 181.252 55.2831 185.777C57.8339 194.943 66.8253 208.207 94.9644 220.02L98.1827 204.001Z"
        fill="#5A98F2" />
    <g opacity="0.3">
        <path
            d="M57.9318 179.98C55.928 180.935 54.5653 183.198 55.2831 185.777C57.8339 194.943 66.8253 208.207 94.9644 220.02L96.6542 211.609C71.1239 200.871 61.3962 188.94 57.9318 179.98Z"
            fill="#000072" />
    </g>
    <g opacity="0.7">
        <path
            d="M62.9447 180.482C59.809 178.169 55.7401 180.225 55.1622 183.576C56.7745 182.297 59.1534 181.996 61.152 183.47C77.0707 195.212 96.3899 206.989 96.3899 206.989L93.8667 219.547C94.2338 219.705 94.5905 219.863 94.9643 220.02L98.1827 204.001C98.1827 204.001 78.8634 192.224 62.9447 180.482Z"
            fill="white" />
    </g>
    <path
        d="M93.0654 211.355C90.5889 210.175 88.2616 208.909 85.9373 207.556C83.615 206.221 81.3575 204.773 79.1346 203.279C76.9025 201.799 74.7643 200.172 72.6724 198.499C70.602 196.795 68.6251 194.969 66.8017 193.009C66.6232 192.818 66.6339 192.517 66.8261 192.338C66.9934 192.183 67.2433 192.171 67.4231 192.298L67.4322 192.304C69.5892 193.826 71.7519 195.299 73.981 196.674C76.2048 198.056 78.4663 199.368 80.7536 200.635C83.046 201.893 85.3777 203.076 87.7147 204.242C90.0528 205.383 92.4439 206.51 94.7736 207.537L94.8087 207.552C95.8661 208.018 96.3456 209.253 95.88 210.31C95.4144 211.367 94.1796 211.847 93.1222 211.381C93.106 211.374 93.0813 211.363 93.0654 211.355Z"
        fill="#000072" />
    <path
        d="M94.9645 222.111C94.6896 222.111 94.4142 222.057 94.1551 221.948C65.1652 209.779 55.9196 195.866 53.268 186.338C52.4503 183.4 53.5398 180.386 56.044 178.661C58.5429 176.939 61.7385 176.994 64.186 178.799C79.8449 190.349 99.0794 202.098 99.2719 202.215C100.022 202.673 100.407 203.551 100.234 204.413L97.0152 220.432C96.8916 221.047 96.4988 221.574 95.9444 221.868C95.6384 222.03 95.3018 222.111 94.9645 222.111ZM60.0442 181.585C59.2628 181.585 58.6547 181.941 58.4179 182.105C57.612 182.66 56.8948 183.769 57.298 185.216C59.6316 193.603 67.8321 205.832 93.4215 217.081L95.8451 205.018C91.2973 202.203 75.1972 192.118 61.7033 182.166C61.1139 181.731 60.5432 181.585 60.0442 181.585Z"
        fill="#000072" />
    <path
        d="M96.6245 185.696C96.6245 185.696 79.1965 171.267 65.1286 157.362C61.7883 154.06 56.1896 156.843 56.7861 161.502C57.9944 170.939 64.9881 185.357 91.1395 201.087L96.6245 185.696Z"
        fill="#5A98F2" />
    <g opacity="0.3">
        <path
            d="M60.3279 156.12C58.1664 156.747 56.4413 158.809 56.786 161.502C57.9943 170.939 64.9879 185.357 91.1394 201.087L94.1221 192.718C70.594 178.564 62.5786 165.476 60.3279 156.12Z"
            fill="#000072" />
    </g>
    <g opacity="0.7">
        <path
            d="M65.1285 157.362C62.1695 154.437 57.4422 156.288 56.8148 159.987C58.6219 158.572 61.3695 158.406 63.3358 160.35C77.4036 174.255 94.8317 188.684 94.8317 188.684L90.5421 200.72C90.7434 200.843 90.9355 200.964 91.1393 201.087L96.6244 185.696C96.6244 185.696 79.1964 171.267 65.1285 157.362Z"
            fill="white" />
    </g>
    <path
        d="M90.5043 192.239C88.223 190.716 86.1014 189.129 83.9955 187.456C81.8889 185.801 79.8627 184.045 77.8774 182.247C75.8812 180.462 73.9987 178.544 72.1687 176.588C70.3645 174.605 68.67 172.514 67.147 170.313C66.998 170.097 67.0518 169.801 67.2674 169.652C67.4554 169.522 67.7044 169.546 67.8641 169.698L67.8721 169.706C69.7883 171.522 71.7171 173.289 73.7256 174.97C75.7279 176.658 77.7776 178.28 79.8595 179.862C81.9475 181.436 84.085 182.943 86.2305 184.431C88.3805 185.897 90.5849 187.356 92.7431 188.706L92.7755 188.726C93.755 189.339 94.0524 190.63 93.4397 191.609C92.827 192.589 91.5362 192.886 90.5568 192.273C90.5416 192.264 90.5189 192.249 90.5043 192.239Z"
        fill="#000072" />
    <path
        d="M91.1392 203.178C90.7639 203.178 90.3904 203.077 90.0613 202.879C63.119 186.673 55.9674 171.577 54.7116 161.767C54.3241 158.742 55.8355 155.916 58.5614 154.568C61.2802 153.223 64.435 153.737 66.5989 155.874C80.4371 169.553 97.7849 183.941 97.9588 184.085C98.6357 184.646 98.8902 185.57 98.5949 186.399L93.1093 201.789C92.8985 202.38 92.4341 202.845 91.8435 203.056C91.6148 203.138 91.3766 203.178 91.1392 203.178ZM61.722 158.01C61.1185 158.01 60.6301 158.211 60.4153 158.317C59.5388 158.751 58.6698 159.745 58.8607 161.236C59.9659 169.87 66.3251 183.15 90.0344 197.957L94.1654 186.367C90.0688 182.929 75.5833 170.637 63.6581 158.849C63.0007 158.199 62.3067 158.01 61.722 158.01Z"
        fill="#000072" />
    <path
        d="M99.1016 169.254C99.1016 169.254 84.8903 151.648 73.868 135.224C71.2509 131.323 65.2106 132.938 64.8689 137.622C64.1767 147.111 68.1642 162.632 90.6659 183.247L99.1016 169.254Z"
        fill="#5A98F2" />
    <g opacity="0.3">
        <path
            d="M69.7589 133.043C67.3894 133.073 65.0768 134.776 64.869 137.622C64.1768 147.111 68.1643 162.632 90.666 183.247L95.6443 174.99C75.18 156.795 70.0396 142.494 69.7589 133.043Z"
            fill="#000072" />
    </g>
    <g opacity="0.7">
        <path
            d="M73.8681 135.223C71.872 132.249 67.8921 132.489 65.9603 134.845C67.5575 134.756 69.2082 135.415 70.2826 137.016C81.3049 153.441 95.5162 171.047 95.5162 171.047L89.0628 181.752C89.5894 182.248 90.1176 182.745 90.6659 183.247L99.1015 169.254C99.1015 169.254 84.8903 151.648 73.8681 135.223Z"
            fill="white" />
    </g>
    <path
        d="M90.7792 173.976C88.947 172.045 87.2811 170.091 85.6476 168.059C84.0094 166.044 82.4687 163.95 80.9733 161.829C79.4588 159.722 78.086 157.509 76.7603 155.278C75.4578 153.031 74.2856 150.703 73.2713 148.317C73.1687 148.076 73.2812 147.797 73.5225 147.694C73.7321 147.605 73.97 147.678 74.0962 147.857L74.1026 147.866C75.5821 149.959 77.0549 152.026 78.6246 154.026C80.1789 156.035 81.7815 158.001 83.4261 159.931C85.0726 161.859 86.7782 163.736 88.4922 165.598C90.216 167.439 91.9915 169.288 93.7422 171.023L93.7698 171.051C94.5904 171.864 94.5962 173.188 93.7829 174.009C92.9696 174.83 91.6451 174.835 90.8244 174.022C90.8111 174.009 90.7918 173.99 90.7792 173.976Z"
        fill="#000072" />
    <path
        d="M90.6659 185.339C90.1465 185.339 89.6412 185.145 89.2531 184.789C66.0708 163.551 62.0634 147.334 62.7835 137.47C63.0047 134.428 65.0477 131.959 67.9872 131.18C70.9208 130.403 73.9099 131.533 75.6045 134.058C86.4472 150.215 100.587 167.766 100.729 167.941C101.281 168.625 101.346 169.581 100.892 170.334L92.4568 184.327C92.1329 184.864 91.5856 185.228 90.9647 185.318C90.8649 185.332 90.7651 185.339 90.6659 185.339ZM69.8313 135.125C69.49 135.125 69.2121 135.183 69.0592 135.223C68.1139 135.474 67.0646 136.275 66.9554 137.774C66.3216 146.456 69.9129 160.736 90.2054 179.96L96.5575 169.423C93.2265 165.239 81.4746 150.312 72.131 136.389C71.4356 135.352 70.5082 135.125 69.8313 135.125Z"
        fill="#000072" />
    <path
        d="M106.453 158.304C106.453 158.304 95.3828 138.572 87.2591 120.536C85.3301 116.254 79.1052 116.836 77.9858 121.398C75.7181 130.638 77.0569 146.607 95.7988 170.692L106.453 158.304Z"
        fill="#5A98F2" />
    <g opacity="0.3">
        <path
            d="M100.579 160.533C85.6404 141.335 81.7633 127.299 81.9515 117.712C80.1544 118.012 78.5098 119.263 77.9858 121.398C75.7181 130.638 77.0569 146.607 95.7988 170.692L106.453 158.304C106.453 158.304 105.88 157.282 104.905 155.503L100.579 160.533Z"
            fill="#000072" />
    </g>
    <g opacity="0.7">
        <path
            d="M87.2591 120.537C85.7888 117.272 81.8283 116.842 79.5296 118.839C81.2072 118.945 82.841 119.883 83.6736 121.732C91.7973 139.767 102.868 159.5 102.868 159.5L94.5959 169.117C94.992 169.639 95.3859 170.161 95.7987 170.692L106.453 158.304C106.453 158.304 95.3828 138.572 87.2591 120.537Z"
            fill="white" />
    </g>
    <path
        d="M95.5003 157.96C94.1162 156.034 92.9698 154.137 91.8621 152.147C90.7497 150.179 89.7502 148.152 88.8222 146.098C87.888 144.048 87.0257 141.965 86.3075 139.832C85.5698 137.707 84.9685 135.535 84.4832 133.347C84.4264 133.09 84.5883 132.836 84.8448 132.779C85.0618 132.731 85.2772 132.84 85.3728 133.03L85.3782 133.041C86.3761 135.026 87.3169 137.01 88.3731 138.937C89.3972 140.876 90.4632 142.786 91.5724 144.665C92.6782 146.547 93.8701 148.373 95.0694 150.183C96.2766 151.97 97.557 153.784 98.8179 155.413L98.8536 155.459C99.561 156.373 99.3937 157.687 98.4801 158.394C97.5664 159.101 96.2524 158.934 95.545 158.02C95.5315 158.003 95.5131 157.978 95.5003 157.96Z"
        fill="#000072" />
    <path
        d="M95.7989 172.783C95.782 172.783 95.7651 172.783 95.7475 172.782C95.1208 172.767 94.5337 172.471 94.1479 171.976C74.8405 147.164 73.5976 130.505 75.9541 120.9C76.6818 117.937 79.1083 115.844 82.1369 115.567C85.1574 115.288 87.9172 116.904 89.1661 119.677C97.1569 137.418 108.167 157.084 108.277 157.281C108.708 158.048 108.612 159.002 108.039 159.668L97.3844 172.055C96.9872 172.518 96.4076 172.783 95.7989 172.783ZM82.776 119.721C82.6715 119.721 82.5839 119.727 82.5181 119.733C81.5435 119.822 80.3752 120.437 80.0169 121.897C77.9423 130.351 79.0988 145.03 95.8941 167.374L103.917 158.045C101.332 153.364 92.2386 136.684 85.3519 121.395C84.6883 119.922 83.4174 119.721 82.776 119.721Z"
        fill="#000072" />
    <path
        d="M281.179 204.001C281.179 204.001 300.498 192.224 316.417 180.483C320.197 177.695 325.338 181.253 324.079 185.777C321.528 194.944 312.536 208.208 284.397 220.02L281.179 204.001Z"
        fill="#5A98F2" />
    <g opacity="0.3">
        <path
            d="M321.43 179.981C323.434 180.935 324.796 183.198 324.078 185.777C321.528 194.944 312.536 208.208 284.397 220.02L282.707 211.61C308.238 200.871 317.965 188.94 321.43 179.981Z"
            fill="#000072" />
    </g>
    <g opacity="0.7">
        <path
            d="M316.417 180.482C319.552 178.169 323.621 180.225 324.199 183.576C322.587 182.297 320.208 181.996 318.21 183.47C302.291 195.212 282.972 206.989 282.972 206.989L285.495 219.547C285.128 219.705 284.771 219.863 284.397 220.02L281.179 204.001C281.179 204.001 300.498 192.224 316.417 180.482Z"
            fill="white" />
    </g>
    <path
        d="M284.588 207.537C286.918 206.511 289.309 205.383 291.647 204.242C293.984 203.077 296.316 201.893 298.608 200.635C300.895 199.368 303.157 198.056 305.381 196.674C307.61 195.299 309.772 193.827 311.929 192.305L311.938 192.298C312.153 192.147 312.449 192.198 312.6 192.413C312.732 192.599 312.71 192.849 312.56 193.01C310.736 194.969 308.76 196.795 306.689 198.499C304.597 200.172 302.459 201.799 300.227 203.279C298.004 204.774 295.747 206.221 293.424 207.556C291.1 208.909 288.773 210.175 286.296 211.355C285.253 211.852 284.005 211.41 283.508 210.367C283.011 209.324 283.453 208.076 284.496 207.578C284.512 207.571 284.528 207.563 284.544 207.556L284.588 207.537Z"
        fill="#000072" />
    <path
        d="M284.397 222.111C284.06 222.111 283.723 222.03 283.417 221.868C282.863 221.574 282.47 221.047 282.346 220.432L279.128 204.413C278.955 203.551 279.339 202.673 280.09 202.215C280.282 202.098 299.517 190.349 315.176 178.799C317.623 176.994 320.819 176.939 323.318 178.66C325.822 180.386 326.911 183.4 326.094 186.338C323.442 195.866 314.196 209.779 285.207 221.948C284.947 222.057 284.672 222.111 284.397 222.111ZM283.516 205.018L285.94 217.081C311.529 205.832 319.73 193.603 322.063 185.216C322.467 183.769 321.749 182.66 320.944 182.105C320.555 181.837 319.172 181.049 317.658 182.166C304.164 192.118 288.064 202.203 283.516 205.018Z"
        fill="#000072" />
    <path
        d="M282.737 185.696C282.737 185.696 300.165 171.267 314.233 157.362C317.573 154.06 323.172 156.843 322.575 161.502C321.367 170.939 314.373 185.357 288.222 201.087L282.737 185.696Z"
        fill="#5A98F2" />
    <g opacity="0.3">
        <path
            d="M319.034 156.12C321.195 156.747 322.92 158.809 322.575 161.502C321.367 170.939 314.374 185.357 288.222 201.087L285.239 192.718C308.767 178.564 316.783 165.476 319.034 156.12Z"
            fill="#000072" />
    </g>
    <g opacity="0.7">
        <path
            d="M314.233 157.362C317.192 154.437 321.919 156.288 322.547 159.987C320.74 158.572 317.992 158.406 316.026 160.35C301.958 174.255 284.53 188.684 284.53 188.684L288.819 200.72C288.618 200.843 288.426 200.964 288.222 201.087L282.737 185.696C282.737 185.696 300.165 171.267 314.233 157.362Z"
            fill="white" />
    </g>
    <path
        d="M286.619 188.706C288.777 187.356 290.981 185.897 293.131 184.431C295.277 182.943 297.414 181.436 299.502 179.862C301.584 178.28 303.634 176.658 305.636 174.97C307.645 173.289 309.573 171.522 311.49 169.706L311.497 169.698C311.688 169.518 311.988 169.526 312.169 169.716C312.326 169.882 312.34 170.132 312.215 170.313C310.692 172.514 308.997 174.605 307.193 176.588C305.363 178.544 303.481 180.462 301.484 182.247C299.499 184.045 297.473 185.801 295.366 187.456C293.26 189.129 291.139 190.716 288.857 192.239C287.897 192.881 286.598 192.622 285.956 191.662C285.314 190.701 285.573 189.402 286.534 188.76C286.548 188.75 286.563 188.741 286.578 188.731L286.619 188.706Z"
        fill="#000072" />
    <path
        d="M288.222 203.179C287.985 203.179 287.747 203.138 287.518 203.056C286.927 202.845 286.463 202.38 286.252 201.789L280.767 186.398C280.472 185.57 280.726 184.646 281.403 184.085C281.577 183.942 298.924 169.553 312.763 155.875C314.926 153.735 318.081 153.223 320.8 154.568C323.526 155.916 325.037 158.742 324.65 161.768C323.394 171.578 316.242 186.674 289.3 202.879C288.971 203.077 288.598 203.179 288.222 203.179ZM285.196 186.367L289.327 197.957C313.036 183.151 319.395 169.87 320.501 161.236C320.692 159.746 319.823 158.751 318.946 158.318C318.523 158.109 317.04 157.528 315.704 158.849C303.778 170.637 289.293 182.929 285.196 186.367Z"
        fill="#000072" />
    <path
        d="M280.26 169.255C280.26 169.255 294.471 151.649 305.493 135.224C308.111 131.324 314.151 132.938 314.493 137.622C315.185 147.112 311.197 162.632 288.696 183.248L280.26 169.255Z"
        fill="#5A98F2" />
    <g opacity="0.3">
        <path
            d="M309.603 133.043C311.972 133.073 314.285 134.776 314.493 137.622C315.185 147.111 311.197 162.632 288.696 183.247L283.717 174.99C304.182 156.795 309.322 142.494 309.603 133.043Z"
            fill="#000072" />
    </g>
    <g opacity="0.7">
        <path
            d="M305.493 135.223C307.489 132.249 311.469 132.489 313.401 134.845C311.804 134.756 310.153 135.415 309.079 137.016C298.056 153.441 283.845 171.047 283.845 171.047L290.299 181.752C289.772 182.248 289.244 182.745 288.695 183.247L280.26 169.254C280.26 169.254 294.471 151.648 305.493 135.223Z"
            fill="white" />
    </g>
    <path
        d="M285.62 171.024C287.37 169.288 289.146 167.44 290.869 165.599C292.584 163.736 294.289 161.86 295.936 159.931C297.58 158.001 299.183 156.036 300.737 154.027C302.307 152.027 303.78 149.959 305.259 147.867L305.266 147.858C305.417 147.644 305.713 147.593 305.927 147.744C306.113 147.876 306.176 148.116 306.09 148.318C305.076 150.704 303.904 153.031 302.601 155.279C301.276 157.509 299.903 159.722 298.388 161.829C296.893 163.951 295.352 166.044 293.714 168.059C292.081 170.092 290.415 172.046 288.583 173.977C287.787 174.815 286.463 174.85 285.625 174.055C284.787 173.26 284.752 171.935 285.547 171.097C285.56 171.084 285.573 171.071 285.585 171.058L285.62 171.024Z"
        fill="#000072" />
    <path
        d="M288.696 185.339C288.596 185.339 288.497 185.332 288.397 185.318C287.776 185.228 287.229 184.865 286.905 184.327L278.469 170.335C278.015 169.582 278.08 168.625 278.633 167.941C278.774 167.766 292.914 150.215 303.757 134.058C305.451 131.533 308.442 130.403 311.374 131.18C314.314 131.959 316.357 134.428 316.579 137.47C317.298 147.334 313.291 163.551 290.108 184.79C289.72 185.145 289.215 185.339 288.696 185.339ZM282.804 169.423L289.156 179.96C309.449 160.736 313.04 146.456 312.407 137.775C312.297 136.276 311.248 135.474 310.302 135.224C309.845 135.102 308.277 134.828 307.23 136.389C297.887 150.312 286.135 165.239 282.804 169.423Z"
        fill="#000072" />
    <path
        d="M272.908 158.305C272.908 158.305 283.979 138.572 292.102 120.537C294.031 116.254 300.256 116.837 301.376 121.398C303.643 130.639 302.305 146.607 283.563 170.692L272.908 158.305Z"
        fill="#5A98F2" />
    <g opacity="0.3">
        <path
            d="M278.782 160.533C293.721 141.335 297.598 127.299 297.41 117.712C299.207 118.012 300.852 119.263 301.376 121.398C303.643 130.638 302.305 146.607 283.563 170.692L272.908 158.304C272.908 158.304 273.481 157.282 274.456 155.503L278.782 160.533Z"
            fill="#000072" />
    </g>
    <g opacity="0.7">
        <path
            d="M292.102 120.537C293.573 117.272 297.533 116.842 299.832 118.839C298.154 118.945 296.521 119.883 295.688 121.732C287.564 139.767 276.494 159.5 276.494 159.5L284.766 169.117C284.37 169.639 283.976 170.161 283.563 170.692L272.908 158.304C272.908 158.304 283.979 138.572 292.102 120.537Z"
            fill="white" />
    </g>
    <path
        d="M280.544 155.413C281.805 153.784 283.085 151.97 284.292 150.183C285.492 148.374 286.684 146.547 287.789 144.665C288.898 142.786 289.964 140.877 290.989 138.937C292.045 137.01 292.986 135.026 293.983 133.041L293.989 133.03C294.107 132.795 294.393 132.701 294.628 132.819C294.826 132.919 294.924 133.139 294.878 133.347C294.393 135.536 293.792 137.707 293.054 139.832C292.336 141.966 291.474 144.048 290.539 146.098C289.611 148.153 288.612 150.179 287.499 152.148C286.392 154.138 285.245 156.034 283.861 157.961C283.187 158.899 281.88 159.113 280.941 158.439C280.003 157.765 279.789 156.457 280.463 155.519C280.476 155.501 280.489 155.483 280.503 155.466L280.544 155.413Z"
        fill="#000072" />
    <path
        d="M283.562 172.783C282.954 172.783 282.375 172.518 281.977 172.055L271.323 159.668C270.749 159.002 270.654 158.048 271.084 157.281C271.194 157.084 282.204 137.419 290.195 119.677C291.445 116.904 294.209 115.285 297.224 115.567C300.253 115.844 302.679 117.937 303.407 120.899C305.764 130.506 304.52 147.164 285.213 171.976C284.827 172.471 284.24 172.767 283.614 172.783C283.596 172.783 283.579 172.783 283.562 172.783ZM275.444 158.045L283.467 167.374C300.262 145.03 301.419 130.351 299.345 121.897C298.986 120.437 297.818 119.822 296.843 119.733C296.37 119.691 294.781 119.682 294.01 121.396C287.123 136.684 278.03 153.364 275.444 158.045Z"
        fill="#000072" />
    <path
        d="M136.293 185.588C136.293 185.779 136.281 185.971 136.258 186.162L132.403 222.453C131.865 227.544 127.204 231.177 122.137 230.448C83.6171 224.915 93.1305 206.33 93.1305 206.33C86.1628 195.209 92.9154 188.492 92.9154 188.492C87.0114 175.919 95.0069 168.426 95.0069 168.426C93.8536 159.385 96.8594 155.877 100.158 154.628C103.367 153.415 107.024 154.52 109.175 157.203C109.552 157.67 109.928 158.13 110.311 158.584C117.948 167.685 126.876 174.192 132.194 177.629C134.889 179.367 136.437 182.403 136.293 185.588Z"
        fill="white" />
    <g opacity="0.3">
        <path
            d="M136.293 185.588C136.293 185.779 136.281 185.971 136.258 186.162L132.403 222.453C131.865 227.544 127.204 231.177 122.137 230.448C83.6171 224.915 93.1305 206.33 93.1305 206.33C86.1628 195.209 92.9154 188.492 92.9154 188.492C87.0114 175.919 95.0069 168.426 95.0069 168.426C93.8536 159.385 96.8594 155.877 100.158 154.628C103.367 153.415 107.024 154.52 109.175 157.203C109.552 157.67 109.928 158.13 110.311 158.584C110.311 158.584 95.0488 159.128 103.779 180.24C103.779 180.24 102.254 180.867 100.164 180.55C98.4492 180.29 96.9296 181.712 96.9987 183.445C97.128 186.685 98.0346 191.55 101.562 196.608C101.562 196.608 101.032 197.135 100.059 197.543C97.9756 198.417 97.1179 200.889 98.2611 202.838C99.2183 204.469 100.566 206.31 102.438 208.056C108.264 213.493 117.728 210.812 120.229 203.246C122.328 196.895 126.799 189.527 136.293 185.588Z"
            fill="#000072" />
    </g>
    <path
        d="M123.449 232.633C122.915 232.633 122.378 232.595 121.84 232.517C105.612 230.187 95.4412 225.25 91.6072 217.842C89.0995 212.997 90.0963 208.536 90.8013 206.511C86.0114 198.167 88.0948 191.441 90.4768 188.15C85.9816 177.315 90.8323 170.062 92.8193 167.714C91.8244 157.755 95.82 154.034 99.4154 152.674C103.46 151.146 108.038 152.44 110.807 155.895C118.629 165.659 128.275 172.602 133.328 175.871C136.864 178.158 138.783 182.185 138.337 186.381L134.483 222.675C134.161 225.708 132.657 228.411 130.248 230.285C128.271 231.823 125.902 232.633 123.449 232.633ZM102.843 156.235C102.183 156.235 101.523 156.35 100.895 156.587C97.5463 157.853 96.2623 161.748 97.0799 168.162C97.1651 168.828 96.9253 169.494 96.4351 169.953C96.1649 170.213 89.6604 176.642 94.8087 187.606C95.1845 188.405 95.017 189.355 94.3902 189.978C94.1784 190.196 88.9671 195.75 94.9026 205.217C95.2935 205.841 95.3281 206.625 94.9919 207.281C94.9149 207.437 92.9774 211.466 95.3578 215.988C97.5667 220.183 104.057 225.738 122.434 228.377C124.316 228.647 126.178 228.152 127.679 226.984C129.183 225.814 130.122 224.127 130.323 222.233L134.177 185.939C134.456 183.321 133.26 180.809 131.056 179.383C125.79 175.976 115.733 168.734 107.542 158.511C106.373 157.052 104.607 156.235 102.843 156.235Z"
        fill="#000072" />
    <path
        d="M97.0412 167.947L97.2645 168.641L97.5332 169.412L97.8281 170.186L98.1508 170.955C98.5888 171.981 99.1095 172.976 99.6918 173.941C99.9668 174.439 100.314 174.879 100.619 175.365C100.97 175.806 101.284 176.297 101.664 176.729C102.369 177.66 103.203 178.475 104.042 179.409L104.07 179.44C104.271 179.664 104.253 180.01 104.028 180.211C103.885 180.34 103.69 180.378 103.517 180.331C102.257 179.982 101.021 179.439 99.9191 178.688C98.7932 177.964 97.7901 177.053 96.8967 176.049C95.9919 175.052 95.1996 173.949 94.5381 172.771C94.2113 172.18 93.9061 171.574 93.6446 170.945C93.5166 170.627 93.3861 170.312 93.2791 169.98C93.1605 169.64 93.0751 169.343 92.9693 168.905C92.6987 167.785 93.3877 166.657 94.5084 166.386C95.5762 166.128 96.6504 166.741 96.9838 167.769L97.0412 167.947Z"
        fill="#000072" />
    <path
        d="M94.8638 187.734C94.8465 187.701 94.8982 187.827 94.9295 187.893L95.0456 188.15C95.1341 188.328 95.2242 188.511 95.3329 188.694C95.5373 189.062 95.7638 189.441 96.0112 189.81C96.513 190.548 97.0826 191.273 97.6923 191.986C98.3076 192.695 98.9762 193.379 99.6692 194.063C100.012 194.411 100.38 194.734 100.732 195.088C101.094 195.428 101.468 195.759 101.83 196.122L101.852 196.144C102.073 196.366 102.073 196.725 101.851 196.946C101.701 197.096 101.487 197.143 101.296 197.09C100.793 196.947 100.295 196.781 99.7958 196.608C99.31 196.41 98.818 196.215 98.3413 195.984C97.3922 195.517 96.4585 194.989 95.5815 194.356C94.6993 193.73 93.8499 193.03 93.0786 192.216C92.696 191.805 92.3095 191.389 91.9667 190.916C91.7922 190.685 91.6271 190.436 91.4625 190.181C91.3819 190.046 91.2991 189.926 91.2216 189.776C91.1388 189.619 91.0806 189.52 90.9671 189.255C90.5472 188.179 91.0792 186.966 92.1552 186.546C93.2312 186.126 94.444 186.658 94.8638 187.734Z"
        fill="#000072" />
    <path
        d="M94.8567 205.147C94.9252 205.263 95.0674 205.471 95.1855 205.646C95.3063 205.829 95.4427 206.012 95.5737 206.196C95.8506 206.557 96.117 206.935 96.4104 207.295C96.9949 208.015 97.6077 208.73 98.2641 209.411C98.9165 210.096 99.6049 210.758 100.321 211.405C101.03 212.065 101.777 212.691 102.529 213.371L102.547 213.387C102.772 213.591 102.79 213.939 102.587 214.164C102.449 214.316 102.246 214.373 102.059 214.332C101.037 214.105 100.025 213.785 99.0692 213.345C98.099 212.927 97.1866 212.393 96.2903 211.824C95.3946 211.253 94.5433 210.608 93.7326 209.905C93.3266 209.554 92.9229 209.193 92.5442 208.803C92.3551 208.604 92.165 208.411 91.9787 208.201C91.7833 207.988 91.625 207.799 91.4043 207.509L91.3836 207.482C90.6828 206.56 90.8615 205.245 91.7829 204.544C92.7042 203.844 94.0192 204.022 94.7199 204.944C94.7676 205.006 94.8171 205.081 94.8567 205.147Z"
        fill="#000072" />
    <path
        d="M243.068 185.588C243.068 185.779 243.08 185.971 243.104 186.162L246.958 222.453C247.496 227.544 252.157 231.177 257.225 230.448C295.744 224.915 286.231 206.33 286.231 206.33C293.199 195.209 286.446 188.492 286.446 188.492C292.35 175.919 284.355 168.426 284.355 168.426C285.508 159.385 282.502 155.877 279.204 154.628C275.995 153.415 272.337 154.52 270.186 157.203C269.81 157.67 269.433 158.13 269.051 158.584C261.414 167.685 252.486 174.192 247.167 177.629C244.472 179.367 242.925 182.403 243.068 185.588Z"
        fill="white" />
    <g opacity="0.3">
        <path
            d="M243.068 185.588C243.068 185.779 243.08 185.971 243.104 186.162L246.958 222.453C247.496 227.544 252.157 231.177 257.225 230.448C295.744 224.915 286.231 206.33 286.231 206.33C293.199 195.209 286.446 188.492 286.446 188.492C292.35 175.919 284.355 168.426 284.355 168.426C285.508 159.385 282.502 155.877 279.203 154.628C275.994 153.415 272.337 154.52 270.186 157.203C269.81 157.67 269.433 158.13 269.051 158.584C269.051 158.584 284.313 159.128 275.582 180.24C275.582 180.24 277.108 180.867 279.197 180.55C280.912 180.29 282.432 181.712 282.363 183.445C282.234 186.685 281.327 191.55 277.799 196.608C277.799 196.608 278.33 197.135 279.302 197.543C281.386 198.417 282.244 200.889 281.1 202.838C280.143 204.469 278.795 206.31 276.924 208.056C271.097 213.493 261.634 210.812 259.132 203.246C257.033 196.895 252.562 189.527 243.068 185.588Z"
            fill="#000072" />
    </g>
    <path
        d="M255.913 232.633C253.459 232.633 251.091 231.823 249.114 230.285C246.705 228.411 245.201 225.708 244.879 222.675L241.024 186.381C240.579 182.185 242.498 178.158 246.033 175.871C251.087 172.602 260.732 165.659 268.555 155.895C271.324 152.439 275.9 151.146 279.946 152.674C283.541 154.034 287.537 157.755 286.542 167.714C288.529 170.062 293.38 177.315 288.885 188.151C291.267 191.441 293.35 198.167 288.56 206.511C289.265 208.536 290.262 212.997 287.754 217.842C283.92 225.25 273.749 230.187 257.522 232.517C256.984 232.595 256.446 232.633 255.913 232.633ZM276.519 156.235C274.755 156.235 272.989 157.052 271.819 158.511C263.628 168.734 253.571 175.976 248.306 179.383C246.102 180.809 244.906 183.321 245.184 185.939L249.039 222.233C249.239 224.127 250.178 225.814 251.683 226.984C253.184 228.152 255.041 228.647 256.928 228.377C275.305 225.738 281.795 220.183 284.004 215.987C286.384 211.466 284.447 207.437 284.363 207.268C284.041 206.617 284.073 205.832 284.459 205.217C290.395 195.749 285.183 190.196 284.959 189.964C284.354 189.34 284.184 188.393 284.554 187.606C289.753 176.533 282.995 170.017 282.927 169.953C282.436 169.494 282.197 168.828 282.282 168.162C283.099 161.748 281.815 157.853 278.466 156.587C277.838 156.35 277.179 156.235 276.519 156.235Z"
        fill="#000072" />
    <path
        d="M286.392 168.906C286.286 169.343 286.201 169.64 286.082 169.98C285.975 170.312 285.845 170.628 285.717 170.945C285.455 171.575 285.15 172.18 284.823 172.772C284.162 173.95 283.37 175.052 282.465 176.049C281.571 177.053 280.568 177.964 279.442 178.688C278.341 179.439 277.104 179.982 275.845 180.331C275.554 180.412 275.252 180.242 275.172 179.951C275.12 179.766 275.171 179.576 275.289 179.442L275.32 179.409C276.158 178.475 276.993 177.66 277.698 176.729C278.077 176.297 278.391 175.806 278.743 175.366C279.047 174.879 279.395 174.439 279.67 173.941C280.252 172.977 280.773 171.982 281.211 170.955L281.533 170.186L281.828 169.412L282.097 168.641L282.32 167.947L282.375 167.777C282.728 166.679 283.904 166.075 285.002 166.428C286.048 166.764 286.643 167.855 286.392 168.906Z"
        fill="#000072" />
    <path
        d="M288.394 189.255C288.281 189.52 288.223 189.619 288.14 189.776C288.062 189.926 287.98 190.046 287.899 190.181C287.734 190.436 287.569 190.685 287.395 190.916C287.052 191.389 286.666 191.805 286.283 192.216C285.512 193.03 284.662 193.73 283.78 194.356C282.903 194.989 281.969 195.517 281.02 195.984C280.544 196.215 280.051 196.41 279.566 196.608C279.067 196.781 278.569 196.947 278.065 197.09C277.764 197.175 277.451 197 277.365 196.699C277.307 196.495 277.369 196.285 277.508 196.145L277.532 196.122C277.894 195.759 278.268 195.428 278.63 195.088C278.982 194.734 279.35 194.411 279.693 194.063C280.385 193.379 281.054 192.695 281.669 191.986C282.279 191.273 282.849 190.548 283.351 189.81C283.598 189.441 283.824 189.062 284.029 188.694C284.137 188.511 284.228 188.328 284.316 188.15L284.432 187.893C284.464 187.827 284.515 187.701 284.498 187.734C284.918 186.658 286.131 186.126 287.207 186.546C288.283 186.966 288.814 188.179 288.394 189.255Z"
        fill="#000072" />
    <path
        d="M287.957 207.509C287.736 207.799 287.578 207.988 287.383 208.201C287.196 208.411 287.006 208.604 286.817 208.803C286.439 209.193 286.035 209.554 285.629 209.905C284.818 210.608 283.967 211.253 283.071 211.824C282.175 212.393 281.262 212.927 280.292 213.345C279.337 213.785 278.325 214.105 277.303 214.332C277.006 214.398 276.712 214.211 276.646 213.915C276.602 213.715 276.672 213.516 276.814 213.387L276.832 213.371C277.585 212.691 278.332 212.065 279.041 211.405C279.756 210.758 280.445 210.096 281.097 209.411C281.754 208.73 282.366 208.015 282.951 207.294C283.244 206.935 283.511 206.556 283.788 206.196C283.919 206.012 284.055 205.829 284.176 205.646C284.294 205.471 284.436 205.262 284.505 205.147C285.093 204.15 286.379 203.819 287.375 204.407C288.372 204.996 288.703 206.281 288.114 207.278C288.074 207.346 288.031 207.41 287.985 207.472L287.957 207.509Z"
        fill="#000072" />
    <path
        d="M236.602 264.253C230.053 271.538 220.181 274.866 210.512 273.301C208.146 272.918 205.415 272.38 202.427 271.609C194.073 269.458 185.289 269.458 176.934 271.609C173.947 272.38 171.216 272.918 168.849 273.301C159.181 274.866 149.309 271.538 142.759 264.253C126.224 245.842 119.292 207.46 130.192 192.389C131.334 190.799 132.684 189.473 134.238 188.451C154.872 174.91 189.681 174.593 189.681 174.593C189.681 174.593 224.49 174.91 245.124 188.451C246.677 189.473 248.028 190.799 249.169 192.389C260.069 207.46 253.137 245.842 236.602 264.253Z"
        fill="white" />
    <path
        d="M230.095 193.595H148.774C148.774 193.595 141.761 205.826 144.541 214.994C144.964 216.39 146.189 217.444 147.647 217.467C148.158 217.475 148.468 217.339 148.785 217.163C149.693 216.659 150.812 217.255 150.897 218.29C151.29 223.049 153.509 232.471 164.497 237.593C177.247 243.536 182.376 244.372 187.072 250.643C188.373 252.38 190.997 252.362 192.28 250.612C196.859 244.369 201.643 243.526 214.372 237.593C225.359 232.472 227.578 223.052 227.972 218.292C228.056 217.273 229.157 216.641 230.048 217.143C230.071 217.156 230.093 217.168 230.115 217.18C231.614 218.002 233.52 217.277 234.104 215.671C237.46 206.44 230.095 193.595 230.095 193.595Z"
        fill="#C5C9DD" />
    <g opacity="0.3">
        <path
            d="M249.169 192.389C246.689 194.385 243.415 195.353 239.1 194.427C239.1 194.427 237.576 196.685 232.521 198.825C229.617 200.062 225.535 201.251 219.906 201.95C206.45 203.63 198.657 209.684 192.349 216.221C190.889 217.735 188.473 217.735 187.013 216.221C180.706 209.684 172.912 203.63 159.455 201.95C153.551 201.215 149.356 199.942 146.422 198.645C141.701 196.56 140.261 194.427 140.261 194.427C135.947 195.353 132.672 194.385 130.192 192.389C131.334 190.799 132.684 189.473 134.238 188.451C154.872 174.91 189.681 174.593 189.681 174.593C189.681 174.593 224.49 174.91 245.124 188.451C246.677 189.473 248.028 190.799 249.169 192.389Z"
            fill="#000072" />
    </g>
    <g opacity="0.3">
        <path
            d="M249.169 192.389C249.161 192.377 249.151 192.366 249.142 192.354C254.082 209.187 247.378 238.076 233.953 253.025C227.774 259.898 218.459 263.038 209.336 261.561C207.103 261.2 204.527 260.693 201.707 259.965C193.825 257.936 185.537 257.936 177.654 259.965C174.835 260.693 172.258 261.2 170.025 261.561C160.903 263.038 151.588 259.898 145.408 253.025C131.983 238.076 125.279 209.187 130.219 192.354C130.211 192.366 130.201 192.377 130.192 192.389C119.292 207.46 126.224 245.842 142.759 264.253C149.309 271.538 159.181 274.866 168.849 273.3C171.216 272.918 173.947 272.38 176.935 271.609C185.289 269.458 194.073 269.458 202.427 271.609C205.415 272.38 208.146 272.918 210.512 273.3C220.181 274.866 230.053 271.538 236.603 264.253C253.137 245.842 260.069 207.46 249.169 192.389Z"
            fill="#000072" />
    </g>
    <path
        d="M164.071 275.778C155.353 275.778 147.066 272.172 141.204 265.651C133.16 256.695 126.777 242.408 124.128 227.433C121.398 211.997 122.99 198.777 128.498 191.163C129.797 189.354 131.342 187.852 133.088 186.703C153.998 172.981 188.215 172.515 189.661 172.501C191.146 172.515 225.364 172.981 246.271 186.702C248.019 187.852 249.565 189.354 250.868 191.169C256.371 198.777 257.964 211.997 255.234 227.432C252.585 242.407 246.202 256.694 238.158 265.65C238.158 265.65 238.158 265.651 238.158 265.651C231.157 273.437 220.697 277.067 210.178 275.365C207.396 274.915 204.612 274.333 201.905 273.634C193.909 271.575 185.454 271.576 177.456 273.635C174.749 274.333 171.965 274.915 169.183 275.365C167.473 275.642 165.764 275.778 164.071 275.778ZM189.662 176.684C189.358 176.688 155.256 177.159 135.385 190.199C134.071 191.064 132.894 192.212 131.891 193.609C127.111 200.218 125.751 212.588 128.247 226.704C130.765 240.942 136.773 254.456 144.315 262.855C150.359 269.577 159.405 272.711 168.515 271.236C171.172 270.806 173.828 270.251 176.412 269.584C185.092 267.348 194.269 267.349 202.949 269.584C205.533 270.251 208.19 270.806 210.846 271.236C219.952 272.71 229.001 269.578 235.047 262.855H235.046C242.589 254.457 248.596 240.942 251.114 226.704C253.611 212.588 252.25 200.218 247.475 193.614C246.467 192.212 245.291 191.064 243.974 190.198C224.086 177.146 190.003 176.687 189.662 176.684Z"
        fill="#000072" />
    <path
        d="M256.932 165.02C256.932 165.02 256.514 192.198 239.1 188.451C239.1 188.451 235.324 194.056 219.906 195.974C204.495 197.898 196.511 202.637 189.681 210.191C182.85 202.637 174.867 197.898 159.455 195.974C144.038 194.056 140.261 188.451 140.261 188.451C122.848 192.198 122.43 165.02 122.43 165.02C107.55 161.076 118.384 137.005 124.013 126.369C125.077 124.367 125.955 122.837 126.439 122.012C126.547 121.833 126.637 121.684 126.702 121.57C126.798 121.403 126.852 121.319 126.852 121.319C117.279 101.3 119.818 87.2215 122.699 79.9012C123.326 78.3056 124.724 77.3376 126.242 77.1344C127.449 76.9671 128.746 77.2957 129.786 78.1802C140.315 87.1079 158.135 90.8428 158.135 90.8428C170.218 83.9288 189.681 83.6719 189.681 83.6719C189.681 83.6719 209.144 83.9288 221.227 90.8428C221.227 90.8428 239.046 87.1079 249.576 78.1802C251.924 76.1843 255.534 77.0268 256.663 79.9012C259.543 87.2215 262.083 101.3 252.51 121.319C252.51 121.319 276.138 159.928 256.932 165.02Z"
        fill="white" />
    <path
        d="M223.599 118.69C223.599 118.69 215.631 117.342 198.888 126.878C193.034 130.211 185.838 130.211 179.984 126.878C163.24 117.342 155.272 118.69 155.272 118.69C141.056 118.69 129.535 130.211 129.535 144.427C129.535 158.638 141.056 170.159 155.272 170.159C158.768 170.159 162.103 169.46 165.144 168.199C165.15 168.193 165.156 168.193 165.162 168.187C166.07 167.721 166.967 167.285 167.851 166.884C179.922 161.357 189.436 161.805 189.436 161.805C189.436 161.805 198.949 161.357 211.02 166.884C211.904 167.285 212.801 167.721 213.709 168.187C213.715 168.193 213.721 168.193 213.727 168.199C216.769 169.46 220.103 170.159 223.599 170.159C237.815 170.159 249.337 158.638 249.337 144.427C249.337 130.211 237.815 118.69 223.599 118.69Z"
        fill="#C5C9DD" />
    <g opacity="0.3">
        <path
            d="M262.878 144.302C263.147 150.012 261.339 154.673 255.537 156.211C255.537 156.211 253.942 180.225 242.337 177.937C242.337 177.937 234.379 184.645 219.282 186.526C204.186 188.407 196.369 193.047 189.681 200.446C182.993 193.047 175.176 188.407 160.08 186.526C144.983 184.645 137.558 178.321 137.558 178.321C124.928 182.082 123.824 156.211 123.824 156.211C118.023 154.673 116.215 150.012 116.484 144.302C113.82 153.615 113.771 162.724 122.432 165.019C122.432 165.019 122.849 192.198 140.264 188.453C140.264 188.453 144.038 194.055 159.454 195.976C174.87 197.897 182.852 202.635 189.681 210.19C196.51 202.635 204.492 197.897 219.908 195.976C235.324 194.055 239.098 188.453 239.098 188.453C256.513 192.198 256.929 165.019 256.929 165.019C265.59 162.724 265.541 153.614 262.878 144.302Z"
            fill="#000072" />
    </g>
    <g opacity="0.3">
        <path
            d="M159.133 127.528C159.133 127.528 152.553 127.086 149.189 129.912C149.189 129.912 143.883 129.183 134.692 128.968C134.692 128.968 129.17 128.639 124.013 126.369C125.077 124.367 125.955 122.837 126.439 122.012L126.66 122.024C126.66 122.024 131.375 124.092 137.232 124.385C143.082 124.683 149.267 124.737 159.133 127.528Z"
            fill="#000072" />
    </g>
    <g opacity="0.3">
        <path
            d="M220.229 127.528C220.229 127.528 226.808 127.086 230.172 129.912C230.172 129.912 235.479 129.183 244.67 128.968C244.67 128.968 250.191 128.639 255.348 126.369C254.285 124.367 253.406 122.837 252.922 122.012L252.701 122.024C252.701 122.024 247.986 124.092 242.13 124.385C236.28 124.683 230.095 124.737 220.229 127.528Z"
            fill="#000072" />
    </g>
    <g opacity="0.3">
        <path
            d="M126.702 121.57C126.798 121.403 126.852 121.319 126.852 121.319C117.279 101.3 119.818 87.2216 122.699 79.9013C123.326 78.3058 124.724 77.3377 126.242 77.1345C126.105 82.9605 127.303 93.6558 136.074 103.671C142.022 110.464 137.503 121.068 128.487 121.528C127.901 121.558 127.306 121.573 126.702 121.57Z"
            fill="#000072" />
    </g>
    <g opacity="0.3">
        <path
            d="M252.659 121.57C252.564 121.403 252.51 121.319 252.51 121.319C262.083 101.3 259.543 87.2216 256.663 79.9013C256.036 78.3058 254.637 77.3377 253.119 77.1345C253.256 82.9605 252.058 93.6558 243.287 103.671C237.339 110.464 241.858 121.068 250.875 121.528C251.46 121.558 252.055 121.573 252.659 121.57Z"
            fill="#000072" />
    </g>
    <path
        d="M189.681 212.281C189.09 212.281 188.526 212.031 188.129 211.592C182.054 204.872 174.809 199.997 159.195 198.051C146.825 196.51 141.461 192.661 139.482 190.72C135.429 191.32 131.88 190.436 128.925 188.086C122.075 182.639 120.689 170.79 120.41 166.564C117.299 165.377 115.111 163.246 113.894 160.212C109.194 148.487 121.561 126.203 124.484 121.206C114.96 100.608 118.035 86.0402 120.755 79.1325C121.536 77.1498 123.167 75.7154 125.231 75.1972C127.295 74.6787 129.505 75.1969 131.139 76.5834C139.958 84.0642 154.393 87.8165 157.82 88.6283C170.241 81.9158 188.852 81.5936 189.653 81.5831C190.508 81.5936 209.12 81.9155 221.541 88.6279C224.97 87.8138 239.418 84.0516 248.223 76.5833C249.857 75.1965 252.066 74.6791 254.131 75.1971C256.195 75.7153 257.826 77.1497 258.607 79.1323C261.327 86.0401 264.401 100.607 254.877 121.206C257.801 126.203 270.168 148.486 265.467 160.212C264.251 163.246 262.063 165.377 258.951 166.564C258.673 170.79 257.286 182.639 250.437 188.086C247.481 190.435 243.933 191.319 239.88 190.72C237.9 192.661 232.536 196.51 220.166 198.051C204.553 199.997 197.307 204.871 191.232 211.592C190.836 212.031 190.272 212.281 189.681 212.281ZM140.263 186.361C140.95 186.361 141.604 186.699 141.998 187.284C142.01 187.299 145.725 192.157 159.712 193.9C173.238 195.586 182.101 199.468 189.681 207.144C197.26 199.468 206.123 195.586 219.649 193.9C233.637 192.157 237.351 187.299 237.387 187.25C237.865 186.541 238.699 186.229 239.538 186.408C242.866 187.125 245.581 186.602 247.833 184.812C253.398 180.386 254.777 169.001 254.838 164.987C254.853 164.05 255.488 163.237 256.394 162.997C258.991 162.309 260.688 160.889 261.584 158.657C265.258 149.498 254.993 129.388 250.727 122.413C250.358 121.809 250.319 121.058 250.624 120.42C260.044 100.712 257.23 87.0532 254.714 80.6649C254.434 79.9538 253.851 79.4397 253.113 79.2541C252.34 79.0616 251.546 79.2497 250.929 79.7732C240.118 88.9434 222.402 92.7354 221.654 92.8925C221.152 92.9972 220.63 92.9149 220.186 92.6605C208.727 86.1011 189.842 85.7683 189.653 85.7657C189.52 85.7683 170.635 86.1013 159.176 92.6605C158.733 92.9149 158.21 92.9978 157.708 92.8925C156.96 92.7355 139.244 88.9434 128.434 79.7732C127.816 79.2495 127.02 79.0615 126.249 79.2541C125.511 79.4397 124.928 79.9538 124.647 80.6649C122.132 87.0532 119.318 100.713 128.738 120.42C129.043 121.058 129.004 121.809 128.635 122.413C124.369 129.389 114.104 149.498 117.778 158.657C118.674 160.89 120.371 162.309 122.968 162.997C123.874 163.237 124.509 164.05 124.524 164.987C124.526 165.13 124.842 179.502 131.534 184.816C133.784 186.603 136.496 187.123 139.824 186.408C139.971 186.376 140.118 186.361 140.263 186.361Z"
        fill="#000072" />
    <path
        d="M120.341 165.021C120.398 164.392 120.52 163.851 120.658 163.276C120.794 162.71 120.973 162.15 121.17 161.596C121.379 161.042 121.602 160.493 121.88 159.961C122.157 159.428 122.465 158.906 122.851 158.432C123.026 158.216 123.342 158.184 123.557 158.359C123.668 158.449 123.73 158.577 123.74 158.709L123.743 158.737C123.785 159.294 123.833 159.827 123.894 160.359L124.106 161.943L124.328 163.507C124.399 164.016 124.474 164.56 124.524 165.018C124.649 166.173 123.814 167.21 122.659 167.335C121.504 167.46 120.466 166.625 120.341 165.47C120.326 165.333 120.325 165.197 120.336 165.064L120.341 165.021Z"
        fill="#000072" />
    <path
        d="M138.659 189.795C138.415 189.486 138.283 189.258 138.132 188.98C137.989 188.713 137.863 188.439 137.753 188.16C137.527 187.603 137.372 187.016 137.245 186.43C137.118 185.844 137.043 185.243 137.021 184.644C136.984 184.051 137.032 183.444 137.129 182.866C137.172 182.613 137.411 182.443 137.663 182.485C137.792 182.507 137.899 182.579 137.967 182.678L137.987 182.707C138.3 183.162 138.595 183.585 138.919 183.985C139.247 184.382 139.575 184.76 139.919 185.12C140.257 185.481 140.614 185.819 140.949 186.158C141.122 186.324 141.284 186.493 141.445 186.658C141.597 186.812 141.779 187.009 141.868 187.111L141.879 187.124C142.637 187.996 142.544 189.318 141.672 190.076C140.8 190.834 139.479 190.741 138.721 189.869C138.701 189.846 138.677 189.818 138.659 189.795Z"
        fill="#000072" />
    <path
        d="M254.838 165.018C254.887 164.56 254.962 164.016 255.034 163.507L255.256 161.943L255.467 160.359C255.529 159.827 255.577 159.294 255.619 158.737L255.621 158.71C255.642 158.434 255.883 158.227 256.16 158.248C256.302 158.259 256.427 158.329 256.511 158.432C256.897 158.906 257.204 159.428 257.482 159.961C257.76 160.493 257.983 161.042 258.192 161.596C258.389 162.15 258.567 162.71 258.703 163.276C258.842 163.851 258.964 164.392 259.021 165.021L259.024 165.053C259.129 166.21 258.277 167.233 257.12 167.339C255.963 167.444 254.94 166.592 254.834 165.435C254.822 165.297 254.824 165.15 254.838 165.018Z"
        fill="#000072" />
    <path
        d="M237.494 187.111C237.582 187.009 237.764 186.812 237.917 186.658C238.077 186.493 238.24 186.324 238.413 186.158C238.747 185.819 239.104 185.481 239.443 185.12C239.787 184.76 240.115 184.382 240.442 183.985C240.766 183.585 241.062 183.162 241.374 182.707L241.393 182.68C241.538 182.469 241.827 182.415 242.038 182.56C242.145 182.634 242.212 182.747 242.232 182.866C242.329 183.444 242.378 184.051 242.34 184.644C242.319 185.243 242.243 185.844 242.116 186.43C241.989 187.016 241.834 187.603 241.608 188.16C241.498 188.439 241.372 188.713 241.229 188.98C241.078 189.258 240.946 189.487 240.702 189.795C239.985 190.701 238.669 190.854 237.763 190.137C236.857 189.42 236.704 188.104 237.421 187.198C237.439 187.175 237.458 187.152 237.477 187.13L237.494 187.111Z"
        fill="#000072" />
    <path
        d="M159.261 92.6093C158.843 92.816 158.374 93.0329 157.917 93.2317L156.509 93.8125C155.562 94.1987 154.619 94.5648 153.521 94.8354L153.501 94.8403C153.245 94.9033 152.986 94.7469 152.923 94.491C152.9 94.397 152.907 94.303 152.937 94.2181C153.334 93.0897 154.009 92.1933 154.708 91.3633C155.059 90.9469 155.425 90.5484 155.804 90.1645C156.19 89.7829 156.57 89.4284 157.014 89.0813L157.031 89.0678C157.946 88.3514 159.268 88.512 159.984 89.4267C160.701 90.3413 160.54 91.6635 159.625 92.3799C159.513 92.4681 159.384 92.5476 159.261 92.6093Z"
        fill="#000072" />
    <path
        d="M222.348 89.0814C222.791 89.4285 223.172 89.783 223.558 90.1646C223.936 90.5485 224.302 90.947 224.654 91.3634C225.353 92.1934 226.027 93.0898 226.425 94.2182C226.513 94.4668 226.382 94.7394 226.133 94.8272C226.042 94.8593 225.948 94.8621 225.86 94.8404L225.841 94.8355C224.742 94.5651 223.8 94.1987 222.852 93.8126L221.445 93.2318C220.988 93.033 220.518 92.8162 220.1 92.6094C219.059 92.0942 218.633 90.8325 219.148 89.7911C219.663 88.7498 220.925 88.3233 221.966 88.8385C222.094 88.9018 222.213 88.9764 222.322 89.0606L222.348 89.0814Z"
        fill="#000072" />
    <path
        d="M171.419 139.431C171.377 139.587 171.353 139.671 171.353 139.671C165.867 128.346 161.559 126.034 137.232 124.385C108.333 122.425 112.414 95.1512 112.498 94.6133L112.504 94.6193C115.886 100.571 125.609 105.161 125.913 105.298C121.784 97.3263 126.834 89.5579 126.834 89.5579C126.834 89.5579 133.831 99.1131 155.231 110.826C175.154 121.725 171.957 137.322 171.419 139.431Z"
        fill="#5A98F2" />
    <g opacity="0.3">
        <path
            d="M127.014 90.7602C126.947 90.3617 126.886 89.9607 126.831 89.5576C126.831 89.5576 117.535 106.299 137.414 115.175C116.836 117.333 112.629 95.262 112.504 94.6194L112.498 94.6135C112.414 95.1513 108.333 122.425 137.232 124.385C161.559 126.034 165.867 128.347 171.353 139.671C171.353 139.671 171.377 139.587 171.419 139.432C172.481 128.838 160.004 121.982 149.972 118.217C138.026 113.734 129.128 103.343 127.014 90.7602Z"
            fill="#000072" />
    </g>
    <g opacity="0.7">
        <path
            d="M155.231 110.826C133.831 99.1131 126.834 89.5579 126.834 89.5579C126.834 89.5579 125.843 91.0855 125.098 93.4787C125.118 93.5047 132.665 103.312 154.035 115.009C167.862 122.573 170.551 132.395 170.723 138.406C170.932 138.816 171.142 139.234 171.353 139.671C171.353 139.671 171.377 139.587 171.419 139.431C171.957 137.322 175.154 121.725 155.231 110.826Z"
            fill="white" />
    </g>
    <path
        d="M127.753 104.295C127.797 104.403 127.901 104.646 127.993 104.828C128.08 105.031 128.178 105.234 128.279 105.437C128.48 105.844 128.689 106.256 128.917 106.665C129.139 107.079 129.391 107.476 129.653 107.883C129.916 108.294 130.218 108.669 130.531 109.083L130.568 109.132C130.797 109.435 130.738 109.866 130.435 110.096C130.274 110.217 130.075 110.257 129.891 110.223C128.743 110.005 127.648 109.492 126.674 108.835C126.186 108.504 125.721 108.139 125.295 107.73C125.085 107.523 124.878 107.311 124.676 107.089C124.478 106.846 124.303 106.656 124.091 106.317L124.025 106.212C123.409 105.227 123.707 103.929 124.692 103.313C125.676 102.696 126.974 102.994 127.591 103.979C127.653 104.078 127.709 104.191 127.753 104.295Z"
        fill="#000072" />
    <path
        d="M171.351 141.764C170.555 141.764 169.821 141.309 169.469 140.584C164.48 130.282 161.387 128.12 137.088 126.474C127.678 125.836 120.56 122.564 115.932 116.748C108.442 107.337 110.345 94.8032 110.43 94.2745C110.571 93.3971 111.25 92.7044 112.124 92.5468C112.997 92.3874 113.877 92.8006 114.315 93.5739C115.902 96.3739 119.349 99.034 122.354 100.934C121.406 94.1869 124.891 88.7046 125.077 88.4183C125.451 87.8418 126.085 87.4861 126.772 87.4669C127.479 87.4448 128.112 87.7675 128.518 88.3218C128.583 88.4096 135.615 97.7071 156.236 108.99C167.968 115.41 172.021 123.502 173.354 129.16C174.822 135.39 173.411 140.091 173.351 140.288C173.097 141.109 172.367 141.692 171.511 141.757C171.458 141.762 171.404 141.764 171.351 141.764ZM114.397 100.155C114.607 104.131 115.632 109.669 119.225 114.169C123.092 119.01 129.197 121.746 137.371 122.3C157.234 123.646 164.527 125.516 169.757 132.731C169.183 127.222 166.069 119.138 154.229 112.66C138.933 104.291 130.852 96.9965 127.341 93.3186C126.389 95.9146 125.577 100.101 127.779 104.343C128.191 105.137 128.052 106.106 127.433 106.752C126.814 107.399 125.852 107.579 125.041 107.203C124.715 107.052 118.863 104.301 114.397 100.155Z"
        fill="#000072" />
    <path
        d="M207.943 139.431C207.985 139.587 208.008 139.671 208.008 139.671C213.494 128.346 217.803 126.034 242.13 124.385C271.029 122.425 266.947 95.1512 266.864 94.6133L266.858 94.6193C263.475 100.571 253.753 105.161 253.448 105.298C257.577 97.3263 252.528 89.5579 252.528 89.5579C252.528 89.5579 245.53 99.1131 224.131 110.826C204.208 121.725 207.405 137.322 207.943 139.431Z"
        fill="#5A98F2" />
    <g opacity="0.3">
        <path
            d="M252.348 90.7599C252.414 90.3615 252.476 89.9605 252.531 89.5574C252.531 89.5574 261.826 106.299 241.947 115.175C262.526 117.333 266.733 95.2617 266.858 94.6192L266.864 94.6132C266.947 95.151 271.029 122.424 242.13 124.384C217.803 126.034 213.494 128.346 208.008 139.67C208.008 139.67 207.985 139.587 207.943 139.431C206.88 128.838 219.357 121.982 229.389 118.217C241.335 113.734 250.233 103.343 252.348 90.7599Z"
            fill="#000072" />
    </g>
    <g opacity="0.7">
        <path
            d="M224.131 110.826C245.53 99.1131 252.528 89.5579 252.528 89.5579C252.528 89.5579 253.519 91.0855 254.264 93.4787C254.244 93.5047 246.697 103.312 225.326 115.009C211.5 122.573 208.811 132.395 208.638 138.406C208.429 138.816 208.22 139.234 208.008 139.671C208.008 139.671 207.985 139.587 207.943 139.431C207.405 137.322 204.208 121.725 224.131 110.826Z"
            fill="white" />
    </g>
    <path
        d="M255.27 106.317C255.058 106.656 254.883 106.846 254.686 107.089C254.484 107.311 254.276 107.523 254.066 107.73C253.641 108.139 253.175 108.504 252.687 108.835C251.714 109.492 250.618 110.005 249.47 110.223C249.097 110.294 248.737 110.049 248.666 109.675C248.628 109.477 248.68 109.283 248.792 109.134L248.83 109.083C249.143 108.669 249.445 108.294 249.708 107.883C249.97 107.476 250.222 107.08 250.445 106.665C250.672 106.256 250.882 105.844 251.083 105.437C251.184 105.234 251.281 105.031 251.368 104.828C251.46 104.646 251.564 104.403 251.608 104.295C252.05 103.221 253.279 102.708 254.354 103.15C255.428 103.592 255.941 104.822 255.498 105.896C255.454 106.004 255.402 106.106 255.342 106.202L255.27 106.317Z"
        fill="#000072" />
    <path
        d="M208.01 141.764C207.957 141.764 207.904 141.762 207.851 141.758C206.993 141.693 206.264 141.11 206.011 140.289C205.95 140.091 204.539 135.39 206.007 129.16C207.341 123.502 211.393 115.41 223.125 108.991C243.746 97.7072 250.778 88.4098 250.847 88.3169C251.255 87.7663 251.918 87.4428 252.594 87.4696C253.279 87.4906 253.911 87.8436 254.285 88.4184C254.47 88.7046 257.954 94.1879 257.008 100.935C259.884 99.1316 263.389 96.4994 265.046 93.5739C265.485 92.8012 266.365 92.3895 267.237 92.5468C268.111 92.7043 268.791 93.397 268.931 94.2745C269.016 94.8032 270.92 107.337 263.429 116.748C258.802 122.564 251.684 125.836 242.274 126.474C217.975 128.12 214.881 130.282 209.892 140.584C209.541 141.309 208.807 141.764 208.01 141.764ZM252.013 93.3268C248.497 97.0076 240.417 104.297 225.133 112.66C213.292 119.139 210.178 127.223 209.605 132.732C214.835 125.516 222.128 123.646 241.991 122.3C250.179 121.745 256.291 119.001 260.157 114.144C263.751 109.626 264.771 104.107 264.975 100.145C260.507 104.297 254.646 107.052 254.32 107.203C253.508 107.58 252.547 107.399 251.928 106.752C251.309 106.106 251.17 105.137 251.583 104.343C253.771 100.127 252.96 95.9304 252.013 93.3268Z"
        fill="#000072" />
    <path
        d="M167.593 153.243C173.436 147.4 173.436 137.928 167.593 132.085C161.751 126.243 152.278 126.243 146.436 132.085C140.593 137.928 140.593 147.4 146.436 153.243C152.278 159.085 161.751 159.085 167.593 153.243Z"
        fill="#F2B42A" />
    <g opacity="0.3">
        <path
            d="M157.017 127.703C148.754 127.703 142.056 134.401 142.056 142.664C142.056 147.817 144.663 152.362 148.629 155.052C146.042 152.743 144.404 149.392 144.404 145.651C144.404 138.685 150.051 133.038 157.017 133.038C163.983 133.038 169.63 138.685 169.63 145.651C169.63 149.392 167.992 152.743 165.405 155.053C169.371 152.362 171.978 147.817 171.978 142.664C171.978 134.401 165.279 127.703 157.017 127.703Z"
            fill="#000072" />
    </g>
    <path
        d="M157.017 159.417C147.779 159.417 140.263 151.902 140.263 142.664C140.263 133.426 147.779 125.91 157.017 125.91C166.255 125.91 173.77 133.426 173.77 142.664C173.77 151.902 166.255 159.417 157.017 159.417ZM157.017 129.496C149.756 129.496 143.849 135.403 143.849 142.664C143.849 149.925 149.756 155.832 157.017 155.832C164.277 155.832 170.185 149.925 170.185 142.664C170.185 135.403 164.277 129.496 157.017 129.496Z"
        fill="#000072" />
    <path
        d="M161.246 149.921C166.843 149.921 171.38 145.384 171.38 139.788C171.38 134.191 166.843 129.654 161.246 129.654C155.65 129.654 151.113 134.191 151.113 139.788C151.113 145.384 155.65 149.921 161.246 149.921Z"
        fill="#000072" />
    <path
        d="M167.602 140.606C169.506 138.702 169.506 135.614 167.602 133.71C165.697 131.805 162.61 131.805 160.705 133.71C158.801 135.614 158.801 138.702 160.705 140.606C162.61 142.511 165.697 142.511 167.602 140.606Z"
        fill="white" />
    <path
        d="M232.921 153.243C238.763 147.401 238.763 137.928 232.921 132.086C227.078 126.243 217.606 126.243 211.763 132.086C205.921 137.928 205.921 147.401 211.763 153.243C217.606 159.086 227.078 159.086 232.921 153.243Z"
        fill="#F2B42A" />
    <g opacity="0.3">
        <path
            d="M222.345 127.703C230.607 127.703 237.305 134.401 237.305 142.663C237.305 147.817 234.699 152.362 230.733 155.052C233.32 152.742 234.958 149.392 234.958 145.651C234.958 138.685 229.311 133.038 222.345 133.038C215.379 133.038 209.731 138.685 209.731 145.651C209.731 149.392 211.369 152.742 213.956 155.052C209.99 152.362 207.384 147.817 207.384 142.663C207.384 134.401 214.082 127.703 222.345 127.703Z"
            fill="#000072" />
    </g>
    <path
        d="M222.345 159.417C213.107 159.417 205.591 151.901 205.591 142.664C205.591 133.426 213.107 125.91 222.345 125.91C231.583 125.91 239.098 133.426 239.098 142.664C239.098 151.901 231.583 159.417 222.345 159.417ZM222.345 129.496C215.084 129.496 209.177 135.403 209.177 142.664C209.177 149.924 215.084 155.831 222.345 155.831C229.606 155.831 235.512 149.924 235.512 142.664C235.512 135.403 229.606 129.496 222.345 129.496Z"
        fill="#000072" />
    <path
        d="M218.115 149.921C223.712 149.921 228.249 145.384 228.249 139.787C228.249 134.191 223.712 129.654 218.115 129.654C212.518 129.654 207.981 134.191 207.981 139.787C207.981 145.384 212.518 149.921 218.115 149.921Z"
        fill="#000072" />
    <path
        d="M218.651 140.606C220.556 138.702 220.556 135.614 218.651 133.71C216.747 131.805 213.659 131.805 211.755 133.71C209.85 135.614 209.85 138.702 211.755 140.606C213.659 142.511 216.747 142.511 218.651 140.606Z"
        fill="white" />
    <g opacity="0.3">
        <path
            d="M191.281 175.905C197.727 170.177 200.239 163.793 201.214 159.511C201.964 156.221 201.013 152.735 198.615 150.361C194.468 146.259 189.683 145.152 189.683 145.152C189.683 145.152 184.719 146.3 180.522 150.591C178.305 152.858 177.412 156.093 178.08 159.193C179.003 163.473 181.477 170.033 188.084 175.905C188.998 176.717 190.367 176.717 191.281 175.905Z"
            fill="#000072" />
    </g>
    <path
        d="M189.681 170.622C196.202 165.457 198.598 159.419 199.476 155.505C200.105 152.699 199.252 149.786 197.199 147.773C193.696 144.339 189.681 143.411 189.681 143.411C189.681 143.411 185.486 144.38 181.931 148.005C180.047 149.926 179.277 152.686 179.844 155.317C180.687 159.225 183.055 165.374 189.681 170.622Z"
        fill="#F9912B" />
    <g opacity="0.3">
        <path
            d="M198.836 150.045C197.598 153.802 195.026 158.62 189.681 162.853C184.323 158.61 181.751 153.779 180.516 150.018C179.711 151.637 179.453 153.505 179.844 155.317C180.687 159.225 183.054 165.374 189.681 170.622C196.202 165.457 198.598 159.419 199.476 155.504C199.896 153.632 199.652 151.714 198.836 150.045Z"
            fill="#000072" />
    </g>
    <g opacity="0.7">
        <path
            d="M179.937 155.718C180.284 154.406 180.954 153.183 181.931 152.187C185.486 148.563 189.681 147.594 189.681 147.594C189.681 147.594 193.696 148.522 197.199 151.956C198.29 153.026 199.039 154.352 199.41 155.78C199.431 155.689 199.456 155.593 199.476 155.505C200.105 152.699 199.252 149.786 197.199 147.773C193.696 144.339 189.681 143.411 189.681 143.411C189.681 143.411 185.486 144.38 181.931 148.005C180.047 149.926 179.277 152.686 179.844 155.317C179.872 155.446 179.906 155.584 179.937 155.718Z"
            fill="white" />
    </g>
    <path
        d="M189.681 172.713C189.221 172.713 188.763 172.562 188.382 172.261C181.381 166.716 178.763 160.226 177.8 155.758C177.077 152.407 178.063 148.961 180.438 146.54C184.374 142.526 189.014 141.418 189.21 141.373C189.519 141.301 189.842 141.301 190.152 141.373C190.339 141.416 194.785 142.477 198.663 146.279C201.243 148.808 202.309 152.428 201.517 155.962C200.528 160.374 197.897 166.783 190.979 172.261C190.599 172.562 190.14 172.713 189.681 172.713ZM189.68 145.588C188.594 145.942 185.823 147.023 183.424 149.469C182.038 150.883 181.464 152.904 181.888 154.876C182.646 158.39 184.621 163.384 189.681 167.891C194.676 163.441 196.658 158.514 197.435 155.047C197.909 152.936 197.273 150.774 195.735 149.266C193.388 146.965 190.743 145.933 189.68 145.588Z"
        fill="#000072" />
    <path
        d="M130.546 292.051C130.546 292.051 121.753 284.221 130.308 273.912C131.723 272.208 134.066 271.587 136.121 272.412C141.28 274.483 150.038 279.362 143.364 286.882C134.254 297.146 130.546 292.051 130.546 292.051Z"
        fill="#5A98F2" />
    <g opacity="0.3">
        <path
            d="M136.824 272.704C136.491 273.233 136.091 273.775 135.595 274.333C131.754 278.661 128.876 280.253 126.829 280.653C125.386 287.446 130.546 292.051 130.546 292.051C130.546 292.051 134.254 297.146 143.364 286.882C149.744 279.694 142.024 274.92 136.824 272.704Z"
            fill="#000072" />
    </g>
    <path
        d="M133.519 295.407C133.405 295.407 133.293 295.404 133.18 295.399C130.857 295.287 129.517 294.048 129.041 293.51C125.493 290.259 120.994 281.86 128.699 272.577C130.709 270.154 134.005 269.309 136.9 270.471C141.205 272.199 146.567 275.237 147.666 279.897C148.32 282.669 147.399 285.487 144.928 288.271C140.723 293.008 136.887 295.407 133.519 295.407ZM132.215 290.784C132.326 290.894 132.727 291.222 133.511 291.224C133.513 291.224 133.515 291.224 133.516 291.224C134.713 291.224 137.377 290.477 141.799 285.494C143.336 283.763 143.923 282.246 143.595 280.857C143.066 278.617 140.059 276.246 135.342 274.353C134.14 273.871 132.763 274.229 131.918 275.248C124.919 283.682 131.205 289.824 131.945 290.496C132.084 290.623 132.126 290.644 132.215 290.784Z"
        fill="#000072" />
    <path
        d="M141.14 285.481C141.14 285.481 133.008 276.966 142.368 267.383C143.915 265.798 146.302 265.368 148.283 266.357C153.258 268.838 161.593 274.408 154.333 281.365C144.424 290.859 141.14 285.481 141.14 285.481Z"
        fill="#5A98F2" />
    <g opacity="0.3">
        <path
            d="M149.047 266.75C149.855 268.95 149.413 271.464 146.565 274.194C142.919 277.687 140.173 279.163 138.154 279.638C138.953 283.185 141.14 285.481 141.14 285.481C141.14 285.481 144.425 290.859 154.333 281.365C161.234 274.753 154.047 269.395 149.047 266.75Z"
            fill="#000072" />
    </g>
    <path
        d="M144.421 289.09C144.106 289.09 143.798 289.07 143.495 289.031C141.189 288.731 139.953 287.388 139.522 286.814C136.248 283.287 132.442 274.552 140.872 265.921C143.072 263.67 146.427 263.093 149.217 264.485C153.368 266.556 158.467 270.017 159.186 274.75C159.614 277.566 158.468 280.3 155.781 282.875C151.471 287.004 147.656 289.09 144.421 289.09ZM142.906 284.354C143.009 284.472 143.38 284.832 144.162 284.896C145.353 284.998 148.069 284.47 152.887 279.855C154.557 278.254 155.265 276.79 155.051 275.378C154.705 273.103 151.898 270.497 147.35 268.228C146.191 267.65 144.79 267.897 143.865 268.844C136.006 276.89 142.378 283.749 142.653 284.037C142.787 284.178 142.826 284.2 142.906 284.354Z"
        fill="#000072" />
    <path
        d="M154.83 280.07C154.83 280.07 148.996 269.843 160.395 262.804C162.279 261.641 164.698 261.8 166.383 263.238C170.61 266.847 177.353 274.267 168.627 279.263C156.718 286.082 154.83 280.07 154.83 280.07Z"
        fill="#5A98F2" />
    <g opacity="0.3">
        <path
            d="M170.085 266.974C169.523 268.363 168.327 269.7 166.237 270.897C158.307 275.437 154.823 274.289 153.379 273.015C153.069 276.972 154.83 280.07 154.83 280.07C154.83 280.07 156.718 286.082 168.627 279.263C174.94 275.648 173.155 270.765 170.085 266.974Z"
            fill="#000072" />
    </g>
    <path
        d="M159.234 284.608C158.143 284.608 157.151 284.433 156.257 284.083C154.092 283.236 153.218 281.633 152.938 280.972C150.614 276.759 149.031 267.363 159.296 261.025C161.974 259.371 165.367 259.621 167.741 261.647C171.269 264.659 175.38 269.25 174.934 274.017C174.669 276.853 172.896 279.228 169.666 281.078C165.562 283.428 162.069 284.608 159.234 284.608ZM156.816 279.402C156.886 279.542 157.161 279.981 157.904 280.233C159.033 280.616 161.796 280.764 167.587 277.448C169.596 276.298 170.637 275.048 170.77 273.627C170.984 271.336 168.89 268.129 165.025 264.828C164.038 263.986 162.618 263.889 161.494 264.584C152.168 270.342 156.165 278.169 156.652 279.043C156.743 279.207 156.777 279.241 156.816 279.402Z"
        fill="#000072" />
    <path
        d="M162.576 298.93C162.576 298.93 153.869 291.887 154.893 277.929C154.893 277.929 156.622 272.679 161.904 270.662C161.904 270.662 167.666 273.447 168.627 280.458C168.627 280.458 162.576 290.51 162.576 298.93Z"
        fill="#F2B42A" />
    <g opacity="0.3">
        <path
            d="M161.904 270.662C160.526 271.188 159.395 271.936 158.468 272.752C158.919 273.063 159.383 273.424 159.843 273.839C162.244 276.008 163.172 279.373 162.392 282.513C161.465 286.246 160.331 292.383 161.216 297.593C162.025 298.482 162.576 298.929 162.576 298.929C162.576 290.51 168.627 280.458 168.627 280.458C167.666 273.447 161.904 270.662 161.904 270.662Z"
            fill="#000072" />
    </g>
    <path
        d="M162.577 301.021C162.107 301.021 161.641 300.863 161.261 300.556C160.87 300.24 151.716 292.654 152.808 277.776C152.82 277.605 152.854 277.437 152.907 277.275C152.99 277.022 155.017 271.053 161.158 268.708C161.695 268.502 162.295 268.528 162.815 268.779C163.09 268.913 169.6 272.144 170.699 280.175C170.764 280.646 170.665 281.128 170.42 281.536C170.362 281.632 164.668 291.203 164.668 298.93C164.668 299.736 164.205 300.47 163.477 300.817C163.19 300.954 162.883 301.021 162.577 301.021ZM156.959 278.381C156.493 285.746 158.909 290.941 161.019 294.004C162.264 287.849 165.338 282.021 166.441 280.061C165.662 276.111 163.081 273.905 161.763 273.011C158.687 274.59 157.294 277.563 156.959 278.381Z"
        fill="#000072" />
    <path
        d="M140.38 301.054C140.38 301.054 131.594 297.9 128.571 286.634C128.571 286.634 128.491 282.027 132.095 278.991C132.095 278.991 137.394 279.602 140.073 284.856C140.073 284.856 138.07 294.428 140.38 301.054Z"
        fill="#F2B42A" />
    <g opacity="0.3">
        <path
            d="M132.986 283.465C134.124 284.238 134.884 285.455 135.06 286.819C135.457 289.881 136.609 296.336 139.596 300.59C139.596 300.59 139.484 300.582 139.286 300.557C139.965 300.905 140.38 301.054 140.38 301.054C138.07 294.428 140.073 284.856 140.073 284.856C137.394 279.602 132.095 278.991 132.095 278.991C131.014 279.901 130.27 280.952 129.75 281.978C130.772 282.259 131.888 282.718 132.986 283.465Z"
            fill="#000072" />
    </g>
    <path
        d="M140.379 303.146C140.142 303.146 139.903 303.106 139.673 303.023C139.272 302.879 129.82 299.359 126.55 287.176C126.506 287.011 126.483 286.841 126.48 286.67C126.475 286.442 126.432 281.028 130.747 277.392C131.187 277.021 131.759 276.849 132.334 276.913C132.596 276.944 138.784 277.724 141.937 283.907C142.153 284.332 142.218 284.818 142.12 285.285C142.102 285.374 140.268 294.378 142.354 300.366C142.62 301.127 142.424 301.973 141.852 302.54C141.453 302.935 140.921 303.146 140.379 303.146ZM130.671 286.385C132.162 291.68 135.013 294.935 137.358 296.824C136.841 291.965 137.551 287.081 137.879 285.21C136.323 282.638 134 281.638 132.741 281.269C131.003 283.202 130.718 285.639 130.671 286.385Z"
        fill="#000072" />
    <path
        d="M153.673 301.277C153.673 301.277 143.105 297.571 139.376 284.082C139.376 284.082 139.239 278.556 143.536 274.881C143.536 274.881 149.899 275.566 153.161 281.846C153.161 281.846 150.842 293.347 153.673 301.277Z"
        fill="#F2B42A" />
    <g opacity="0.3">
        <path
            d="M143.536 274.881C142.415 275.84 141.601 276.924 141.003 278.004C141.532 278.146 142.09 278.329 142.663 278.566C145.653 279.801 147.659 282.658 147.98 285.878C148.362 289.705 149.357 295.866 151.942 300.475C153.003 301.041 153.673 301.277 153.673 301.277C150.842 293.347 153.161 281.846 153.161 281.846C149.899 275.566 143.536 274.881 143.536 274.881Z"
            fill="#000072" />
    </g>
    <path
        d="M153.673 303.368C153.441 303.368 153.208 303.329 152.981 303.25C152.508 303.084 141.334 299.018 137.36 284.639C137.315 284.474 137.29 284.304 137.285 284.134C137.279 283.867 137.181 277.564 142.176 273.291C142.613 272.917 143.189 272.741 143.76 272.801C144.065 272.834 151.281 273.689 155.017 280.882C155.237 281.305 155.305 281.791 155.212 282.258C155.189 282.368 153.045 293.296 155.643 300.573C155.914 301.332 155.725 302.179 155.157 302.751C154.757 303.152 154.221 303.368 153.673 303.368ZM141.474 283.813C143.51 290.906 147.534 294.987 150.55 297.161C149.653 290.946 150.589 284.424 150.969 282.207C148.906 278.749 145.734 277.539 144.193 277.14C141.826 279.662 141.514 282.929 141.474 283.813Z"
        fill="#000072" />
    <path
        d="M248.815 292.051C248.815 292.051 257.609 284.221 249.053 273.912C247.639 272.208 245.295 271.587 243.24 272.412C238.082 274.483 229.323 279.362 235.998 286.882C245.107 297.146 248.815 292.051 248.815 292.051Z"
        fill="#5A98F2" />
    <g opacity="0.3">
        <path
            d="M242.537 272.704C242.87 273.233 243.271 273.775 243.767 274.333C247.608 278.661 250.485 280.253 252.533 280.653C253.976 287.446 248.815 292.051 248.815 292.051C248.815 292.051 245.107 297.146 235.998 286.882C229.618 279.694 237.338 274.92 242.537 272.704Z"
            fill="#000072" />
    </g>
    <path
        d="M245.844 295.408C242.475 295.408 238.639 293.009 234.434 288.271C231.963 285.487 231.042 282.67 231.695 279.897C232.794 275.237 238.156 272.199 242.461 270.471C245.357 269.308 248.653 270.155 250.663 272.577C258.367 281.86 253.868 290.259 250.321 293.51C249.845 294.048 248.504 295.287 246.182 295.399C246.069 295.405 245.957 295.408 245.844 295.408ZM245.116 274.141C244.747 274.141 244.376 274.21 244.019 274.353C239.303 276.246 236.295 278.617 235.767 280.857C235.439 282.247 236.026 283.764 237.563 285.494C241.985 290.477 244.648 291.224 245.845 291.224C245.848 291.224 245.849 291.224 245.851 291.224C246.635 291.223 247.035 290.894 247.147 290.785C247.238 290.64 247.278 290.62 247.42 290.494C248.174 289.807 254.434 283.671 247.444 275.248C246.849 274.532 245.991 274.141 245.116 274.141Z"
        fill="#000072" />
    <path
        d="M238.221 285.481C238.221 285.481 246.354 276.966 236.993 267.383C235.446 265.798 233.06 265.368 231.078 266.357C226.104 268.838 217.768 274.408 225.028 281.365C234.937 290.859 238.221 285.481 238.221 285.481Z"
        fill="#5A98F2" />
    <g opacity="0.3">
        <path
            d="M230.315 266.75C229.506 268.95 229.948 271.464 232.797 274.194C236.442 277.687 239.189 279.163 241.207 279.638C240.408 283.185 238.221 285.481 238.221 285.481C238.221 285.481 234.937 290.859 225.028 281.365C218.128 274.753 225.314 269.395 230.315 266.75Z"
            fill="#000072" />
    </g>
    <path
        d="M234.941 289.09C231.706 289.09 227.891 287.004 223.581 282.875C220.894 280.3 219.748 277.566 220.176 274.75C220.894 270.017 225.993 266.555 230.144 264.485C232.937 263.093 236.29 263.67 238.49 265.921C246.919 274.552 243.113 283.287 239.84 286.814C239.408 287.388 238.172 288.731 235.867 289.031C235.563 289.07 235.255 289.09 234.941 289.09ZM233.325 267.919C232.878 267.919 232.429 268.02 232.011 268.228C227.463 270.497 224.657 273.103 224.311 275.378C224.097 276.789 224.805 278.254 226.476 279.855C231.293 284.471 234.013 284.995 235.2 284.896C235.981 284.832 236.353 284.472 236.455 284.354C236.534 284.202 236.573 284.179 236.704 284.042C237.397 283.3 243.146 276.676 235.497 268.844C234.906 268.238 234.119 267.919 233.325 267.919Z"
        fill="#000072" />
    <path
        d="M224.531 280.07C224.531 280.07 230.365 269.843 218.967 262.804C217.083 261.641 214.663 261.8 212.979 263.238C208.751 266.847 202.009 274.267 210.735 279.263C222.643 286.082 224.531 280.07 224.531 280.07Z"
        fill="#5A98F2" />
    <g opacity="0.3">
        <path
            d="M209.277 266.974C209.839 268.363 211.034 269.7 213.125 270.897C221.054 275.437 224.538 274.289 225.983 273.015C226.293 276.972 224.531 280.07 224.531 280.07C224.531 280.07 222.643 286.082 210.734 279.263C204.421 275.648 206.206 270.765 209.277 266.974Z"
            fill="#000072" />
    </g>
    <path
        d="M220.127 284.608C217.292 284.608 213.799 283.428 209.695 281.078C206.465 279.229 204.693 276.853 204.427 274.016C203.981 269.25 208.093 264.659 211.621 261.647C213.995 259.622 217.389 259.371 220.066 261.025C230.331 267.363 228.748 276.759 226.423 280.972C226.144 281.634 225.269 283.236 223.104 284.084C222.211 284.433 221.218 284.608 220.127 284.608ZM216.258 264.123C215.567 264.123 214.885 264.361 214.337 264.828C210.472 268.128 208.378 271.336 208.592 273.627C208.725 275.048 209.766 276.298 211.774 277.448C217.933 280.975 220.683 280.539 221.579 280.188C222.277 279.915 222.535 279.448 222.536 279.443C222.58 279.304 222.638 279.169 222.71 279.042C223.199 278.165 227.19 270.34 217.868 264.584C217.368 264.275 216.81 264.123 216.258 264.123Z"
        fill="#000072" />
    <path
        d="M216.785 298.93C216.785 298.93 225.493 291.887 224.468 277.929C224.468 277.929 222.74 272.679 217.457 270.662C217.457 270.662 211.695 273.448 210.735 280.458C210.735 280.458 216.785 290.51 216.785 298.93Z"
        fill="#F2B42A" />
    <g opacity="0.3">
        <path
            d="M217.457 270.662C218.835 271.189 219.966 271.936 220.893 272.752C220.442 273.063 219.979 273.424 219.519 273.839C217.117 276.008 216.189 279.373 216.969 282.513C217.897 286.246 219.031 292.383 218.146 297.593C217.337 298.483 216.785 298.93 216.785 298.93C216.785 290.51 210.735 280.458 210.735 280.458C211.695 273.447 217.457 270.662 217.457 270.662Z"
            fill="#000072" />
    </g>
    <path
        d="M216.785 301.021C216.479 301.021 216.171 300.954 215.884 300.817C215.157 300.47 214.694 299.736 214.694 298.93C214.694 291.181 209 281.632 208.943 281.537C208.697 281.128 208.598 280.647 208.662 280.175C209.762 272.144 216.271 268.913 216.547 268.779C217.066 268.528 217.665 268.502 218.203 268.708C224.344 271.053 226.372 277.022 226.454 277.275C226.508 277.437 226.541 277.605 226.554 277.776C227.646 292.654 218.491 300.24 218.1 300.556C217.721 300.863 217.255 301.021 216.785 301.021ZM212.921 280.061C214.024 282.021 217.097 287.849 218.343 294.004C220.453 290.941 222.869 285.745 222.402 278.379C222.073 277.575 220.681 274.593 217.597 273.011C216.286 273.9 213.701 276.107 212.921 280.061Z"
        fill="#000072" />
    <path
        d="M238.982 301.054C238.982 301.054 247.767 297.9 250.791 286.634C250.791 286.634 250.871 282.028 247.267 278.991C247.267 278.991 241.968 279.602 239.288 284.856C239.288 284.856 241.292 294.428 238.982 301.054Z"
        fill="#F2B42A" />
    <g opacity="0.3">
        <path
            d="M246.375 283.465C245.237 284.238 244.478 285.455 244.301 286.819C243.905 289.881 242.753 296.336 239.765 300.59C239.765 300.59 239.878 300.582 240.076 300.557C239.397 300.905 238.982 301.054 238.982 301.054C241.292 294.428 239.288 284.856 239.288 284.856C241.968 279.602 247.267 278.991 247.267 278.991C248.347 279.901 249.092 280.952 249.611 281.978C248.59 282.259 247.474 282.718 246.375 283.465Z"
            fill="#000072" />
    </g>
    <path
        d="M238.982 303.146C238.44 303.146 237.908 302.935 237.509 302.54C236.937 301.973 236.742 301.127 237.007 300.366C239.095 294.378 237.26 285.374 237.241 285.284C237.144 284.818 237.208 284.331 237.425 283.907C240.577 277.724 246.765 276.944 247.027 276.913C247.602 276.849 248.174 277.021 248.614 277.392C252.93 281.028 252.886 286.442 252.882 286.67C252.879 286.841 252.855 287.011 252.811 287.176C249.542 299.359 240.089 302.879 239.689 303.023C239.458 303.106 239.219 303.146 238.982 303.146ZM241.483 285.211C241.811 287.081 242.52 291.965 242.004 296.824C244.349 294.935 247.2 291.679 248.691 286.383C248.645 285.653 248.363 283.209 246.621 281.271C245.361 281.642 243.036 282.644 241.483 285.211Z"
        fill="#000072" />
    <path
        d="M225.688 301.277C225.688 301.277 236.257 297.571 239.985 284.082C239.985 284.082 240.122 278.556 235.826 274.881C235.826 274.881 229.462 275.566 226.201 281.846C226.201 281.846 228.519 293.347 225.688 301.277Z"
        fill="#F2B42A" />
    <g opacity="0.3">
        <path
            d="M235.826 274.881C236.947 275.84 237.76 276.924 238.359 278.004C237.83 278.146 237.272 278.329 236.699 278.566C233.708 279.801 231.702 282.658 231.381 285.878C231 289.705 230.004 295.866 227.42 300.475C226.358 301.041 225.688 301.277 225.688 301.277C228.519 293.347 226.201 281.846 226.201 281.846C229.463 275.566 235.826 274.881 235.826 274.881Z"
            fill="#000072" />
    </g>
    <path
        d="M225.689 303.368C225.141 303.368 224.604 303.153 224.205 302.751C223.637 302.179 223.447 301.332 223.719 300.573C226.317 293.296 224.173 282.368 224.15 282.258C224.057 281.791 224.125 281.305 224.345 280.882C228.081 273.69 235.297 272.834 235.602 272.801C236.173 272.741 236.748 272.917 237.186 273.291C242.18 277.565 242.082 283.867 242.076 284.134C242.072 284.304 242.047 284.474 242.001 284.639C238.027 299.018 226.854 303.084 226.38 303.25C226.154 303.329 225.92 303.368 225.689 303.368ZM228.393 282.207C228.774 284.424 229.708 290.946 228.811 297.162C231.828 294.986 235.852 290.906 237.888 283.811C237.849 282.943 237.54 279.667 235.168 277.14C233.634 277.537 230.458 278.746 228.393 282.207Z"
        fill="#000072" />
    <path
        d="M189.435 253.087C200.618 253.087 203.222 260.635 203.222 260.635C200.404 269.848 201.557 279.722 201.557 279.722C196.691 288.685 189.681 289.838 189.681 289.838C189.681 289.838 182.671 288.685 177.805 279.722C177.805 279.722 178.957 269.848 176.14 260.635C176.14 260.635 178.744 253.087 189.927 253.087"
        fill="#D1903B" />
    <g opacity="0.3">
        <path
            d="M203.221 260.635C203.221 260.635 202.767 259.327 201.434 257.8C199.813 265.352 200.646 272.515 200.646 272.515C196.153 280.792 189.681 281.856 189.681 281.856C189.681 281.856 183.208 280.792 178.715 272.515C178.715 272.515 179.549 265.352 177.927 257.8C176.594 259.327 176.14 260.635 176.14 260.635C178.957 269.848 177.804 279.722 177.804 279.722C182.67 288.685 189.681 289.838 189.681 289.838C189.681 289.838 196.691 288.685 201.557 279.722C201.557 279.722 200.404 269.848 203.221 260.635Z"
            fill="#000072" />
    </g>
    <path
        d="M179.014 281.428C178.901 281.543 178.687 281.719 178.512 281.873L177.948 282.352L176.799 283.331C176.039 283.999 175.262 284.672 174.535 285.412C173.798 286.146 173.116 286.943 172.477 287.803C171.804 288.653 171.28 289.6 170.698 290.603L170.695 290.609C170.667 290.658 170.604 290.674 170.556 290.646C170.525 290.629 170.507 290.597 170.505 290.565C170.433 289.414 170.491 288.207 170.768 287.047C171.03 285.883 171.424 284.728 171.959 283.646C172.488 282.559 173.108 281.501 173.872 280.558C174.254 280.087 174.657 279.631 175.101 279.212C175.319 278.998 175.551 278.797 175.791 278.599C176.041 278.397 176.262 278.229 176.596 278.015C177.565 277.393 178.854 277.674 179.476 278.643C180.013 279.479 179.877 280.554 179.207 281.233L179.014 281.428Z"
        fill="#000072" />
    <path
        d="M202.766 278.015C203.099 278.229 203.321 278.398 203.571 278.599C203.811 278.797 204.042 278.998 204.26 279.212C204.705 279.631 205.108 280.088 205.489 280.559C206.254 281.501 206.873 282.559 207.402 283.646C207.938 284.729 208.332 285.884 208.593 287.048C208.871 288.207 208.928 289.414 208.856 290.565C208.853 290.621 208.805 290.664 208.748 290.66C208.713 290.658 208.684 290.638 208.667 290.61L208.663 290.604C208.081 289.6 207.557 288.653 206.884 287.803C206.245 286.943 205.563 286.146 204.826 285.413C204.1 284.673 203.323 284 202.563 283.331L201.414 282.353L200.849 281.874C200.675 281.719 200.461 281.543 200.348 281.429L200.156 281.234C199.347 280.414 199.356 279.094 200.176 278.286C200.883 277.588 201.963 277.5 202.766 278.015Z"
        fill="#000072" />
    <path
        d="M189.681 291.929C189.568 291.929 189.454 291.92 189.342 291.901C189.014 291.848 181.26 290.471 175.966 280.719C175.761 280.34 175.677 279.907 175.727 279.479C175.738 279.386 176.789 269.91 174.14 261.247C174.011 260.824 174.019 260.371 174.163 259.953C174.287 259.594 177.282 251.309 189.243 251.004C189.388 250.991 189.535 250.995 189.681 250.996C189.827 250.995 189.974 250.991 190.119 251.004C202.079 251.309 205.075 259.594 205.199 259.953C205.343 260.371 205.351 260.824 205.221 261.247C202.573 269.91 203.624 279.386 203.635 279.48C203.684 279.908 203.6 280.341 203.395 280.719C198.102 290.471 190.348 291.848 190.02 291.901C189.908 291.92 189.794 291.929 189.681 291.929ZM179.95 279.273C183.632 285.674 188.354 287.339 189.683 287.694C190.991 287.346 195.723 285.686 199.412 279.273C199.205 276.879 198.74 268.76 200.997 260.785C200.211 259.303 197.367 255.264 189.681 255.18C182.01 255.264 179.162 259.287 178.365 260.788C180.621 268.761 180.156 276.879 179.95 279.273Z"
        fill="#000072" />
</svg>